<?xml version="1.0" standalone="no"?>
<!DOCTYPE svg PUBLIC "-//W3C//DTD SVG 20010904//EN"
 "http://www.w3.org/TR/2001/REC-SVG-20010904/DTD/svg10.dtd">
<svg version="1.0" xmlns="http://www.w3.org/2000/svg"
 width="752.000000pt" height="752.000000pt" viewBox="0 0 752.000000 752.000000"
 preserveAspectRatio="xMidYMid meet">
<metadata>
Created by potrace 1.14, written by Peter Selinger 2001-2017
</metadata>
<g transform="translate(0.000000,752.000000) scale(0.100000,-0.100000)"
fill="#000000" stroke="none">
<path d="M2825 6962 c-45 -13 -118 -55 -156 -92 -21 -18 -329 -481 -329 -492
0 -4 -4 -8 -10 -8 -5 0 -10 -4 -10 -9 0 -9 -86 -140 -110 -168 -5 -7 -10 -17
-10 -23 0 -5 -4 -10 -10 -10 -5 0 -10 -5 -10 -11 0 -12 -60 -103 -72 -107 -4
-2 -8 -8 -8 -13 0 -5 -28 -51 -62 -101 -35 -51 -65 -97 -68 -103 -6 -12 -123
-188 -130 -195 -7 -7 -29 -42 -37 -60 -4 -8 -12 -21 -19 -30 -7 -8 -60 -87
-118 -175 -58 -88 -110 -167 -116 -175 -79 -114 -120 -190 -126 -235 -1 -5 -3
-12 -4 -15 -16 -38 2 -165 32 -230 28 -59 98 -131 159 -164 138 -76 320 -53
428 54 40 40 81 88 81 95 0 2 22 37 49 77 146 218 268 406 274 421 3 9 11 17
17 17 6 0 8 5 5 10 -3 6 -3 10 2 10 4 0 26 30 48 66 22 36 45 71 50 78 24 28
55 76 55 85 0 5 3 11 8 13 4 2 90 129 191 283 102 154 188 282 193 283 4 2 8
8 8 13 0 5 50 84 110 174 61 91 119 181 130 199 57 103 62 236 11 339 -17 34
-43 76 -58 93 -97 105 -248 147 -388 106z m199 -107 c56 -24 121 -89 146 -147
74 -172 -47 -370 -233 -382 -92 -6 -156 20 -223 90 -92 98 -94 265 -4 367 74
84 210 115 314 72z"/>
<path d="M4502 6961 c-74 -28 -114 -55 -165 -111 -73 -81 -103 -191 -85 -308
10 -65 28 -100 115 -233 38 -56 77 -117 88 -135 11 -19 28 -43 38 -54 9 -11
17 -22 17 -24 0 -3 71 -112 158 -243 87 -131 213 -321 280 -423 67 -102 126
-192 132 -200 6 -8 94 -141 195 -295 197 -298 247 -360 322 -395 66 -31 87
-35 178 -35 69 0 89 5 145 31 75 37 127 83 166 149 53 91 65 222 28 316 -9 24
-109 183 -220 352 -112 169 -204 312 -204 316 0 5 -3 11 -7 13 -11 4 -93 127
-93 137 0 5 -3 11 -7 13 -12 5 -53 66 -53 78 0 5 -4 10 -10 10 -5 0 -10 6 -10
14 0 8 -3 16 -7 18 -10 4 -53 65 -53 74 0 3 -13 23 -30 44 -16 21 -30 41 -30
44 0 6 -38 64 -50 76 -7 7 -29 43 -37 60 -4 8 -12 20 -17 27 -30 34 -36 43
-36 53 0 5 -4 10 -10 10 -5 0 -10 4 -10 10 0 16 -321 493 -354 526 -92 91
-255 128 -374 85z m223 -100 c76 -21 162 -116 181 -202 40 -174 -109 -345
-287 -332 -77 5 -79 5 -79 15 0 4 -8 8 -18 8 -26 0 -98 64 -126 113 -24 41
-42 122 -37 162 6 50 35 116 67 154 74 86 180 115 299 82z"/>
<path d="M536 4863 c-1 -1 -57 -3 -124 -4 -95 -1 -135 -6 -175 -21 -175 -66
-269 -246 -223 -426 27 -107 99 -191 205 -241 l56 -26 3469 -1 c3653 -1 3499
-3 3587 41 56 28 142 125 164 186 34 92 27 225 -17 300 -55 95 -160 171 -254
184 -46 6 -914 8 -920 2 -2 -2 -7 -24 -10 -48 -21 -156 -108 -297 -238 -383
-89 -59 -165 -80 -291 -80 -138 0 -224 28 -330 107 -43 33 -125 127 -125 145
0 6 -3 12 -7 14 -11 4 -93 127 -93 137 0 5 -3 11 -7 13 -11 4 -53 65 -53 77 0
5 -8 12 -17 15 -9 4 -622 7 -1361 7 -1249 0 -1346 -1 -1363 -17 -11 -9 -19
-23 -19 -31 0 -7 -4 -13 -8 -13 -5 0 -14 -11 -20 -25 -7 -14 -17 -31 -22 -38
-6 -7 -37 -52 -70 -102 -62 -94 -149 -190 -181 -200 -10 -4 -19 -10 -19 -14 0
-8 -49 -31 -120 -56 -70 -25 -202 -30 -284 -11 -145 34 -276 135 -348 268 -36
67 -47 105 -62 210 -1 10 -5 20 -8 23 -5 5 -707 13 -712 8z"/>
<path d="M897 3954 c-1 -1 -25 -4 -54 -7 -28 -3 -61 -10 -72 -16 -12 -7 -21
-9 -21 -6 0 4 -28 -9 -62 -27 -107 -57 -181 -142 -211 -245 -18 -58 -15 -108
8 -183 43 -140 81 -266 145 -490 23 -80 44 -152 47 -160 8 -20 9 -21 18 -55 4
-16 20 -74 36 -127 16 -54 43 -144 59 -200 17 -57 38 -128 47 -158 9 -30 18
-59 19 -65 1 -5 21 -73 44 -150 23 -77 46 -153 50 -170 4 -16 43 -147 85 -290
43 -143 78 -264 79 -270 3 -11 36 -122 44 -145 3 -8 6 -19 7 -25 5 -21 46
-161 55 -185 5 -14 11 -45 13 -70 7 -65 43 -162 66 -180 4 -3 16 -18 28 -33
24 -31 93 -85 133 -104 109 -52 -78 -48 2180 -51 1521 -2 2091 0 2135 8 112
22 244 106 296 190 22 36 50 110 55 145 8 53 8 151 0 163 -4 7 -9 21 -11 32
-10 53 -87 127 -154 150 -47 16 -189 17 -1983 16 l-1933 -1 -47 23 c-50 25
-61 42 -99 152 -12 36 -26 76 -32 90 -6 14 -11 30 -13 35 -2 10 -71 201 -104
290 -10 28 -51 140 -90 250 -39 110 -79 223 -90 250 -10 28 -43 120 -73 205
-30 85 -62 173 -70 195 -63 164 -120 334 -119 355 3 67 37 119 92 143 18 7
817 11 2685 12 2121 1 2669 4 2705 14 100 29 191 105 237 200 91 184 -53 413
-298 477 -59 16 -290 17 -2947 18 -1586 1 -2884 0 -2885 0z"/>
</g>
</svg>
